<?xml version="1.0" encoding="UTF-8"?>
<!DOCTYPE svg PUBLIC "-//W3C//DTD SVG 1.1//EN" "http://www.w3.org/Graphics/SVG/1.1/DTD/svg11.dtd">
<svg xmlns="http://www.w3.org/2000/svg" version="1.1" width="500px" height="500px" style="shape-rendering:geometricPrecision; text-rendering:geometricPrecision; image-rendering:optimizeQuality; fill-rule:evenodd; clip-rule:evenodd" xmlns:xlink="http://www.w3.org/1999/xlink">
<g><path style="opacity:1" fill="#fefefe" d="M -0.5,-0.5 C 166.167,-0.5 332.833,-0.5 499.5,-0.5C 499.5,166.167 499.5,332.833 499.5,499.5C 332.833,499.5 166.167,499.5 -0.5,499.5C -0.5,332.833 -0.5,166.167 -0.5,-0.5 Z"/></g>
<g><path style="opacity:1" fill="#cdf5f6" d="M 425.5,206.5 C 424.262,204.786 423.595,202.786 423.5,200.5C 430.5,200.5 437.5,200.5 444.5,200.5C 416.845,123.474 362.179,80.6402 280.5,72C 265.812,71.2528 251.146,71.4195 236.5,72.5C 298.25,58.5692 354.583,70.4026 405.5,108C 434.938,132.709 454.938,163.542 465.5,200.5C 458.833,200.5 452.167,200.5 445.5,200.5C 445.421,201.93 445.754,203.264 446.5,204.5C 439.345,205.167 432.345,205.833 425.5,206.5 Z"/></g>
<g><path style="opacity:1" fill="#94e9eb" d="M 423.5,200.5 C 394.205,125.977 339.538,84.4771 259.5,76C 245.484,75.3006 231.484,75.4672 217.5,76.5C 223.622,74.724 229.955,73.3907 236.5,72.5C 251.146,71.4195 265.812,71.2528 280.5,72C 362.179,80.6402 416.845,123.474 444.5,200.5C 437.5,200.5 430.5,200.5 423.5,200.5 Z"/></g>
<g><path style="opacity:1" fill="#032008" d="M 423.5,200.5 C 423.595,202.786 424.262,204.786 425.5,206.5C 425.5,207.5 425.5,208.5 425.5,209.5C 408.833,209.5 392.167,209.5 375.5,209.5C 358.981,166.493 328.315,138.993 283.5,127C 267.69,123.548 251.69,122.048 235.5,122.5C 227.583,122.614 219.916,123.614 212.5,125.5C 159.499,137.099 124.665,168.765 108,220.5C 97.5413,259.621 99.8746,297.954 115,335.5C 137.222,381.387 173.722,407.887 224.5,415C 238.858,415.741 253.191,415.408 267.5,414C 274.428,413.098 281.095,411.598 287.5,409.5C 290.785,409.072 293.785,408.072 296.5,406.5C 336.888,392.303 364.555,365.136 379.5,325C 385.825,324.5 392.158,324.334 398.5,324.5C 408.5,324.5 418.5,324.5 428.5,324.5C 413.991,377.512 382.324,416.679 333.5,442C 324.187,446.152 314.854,449.986 305.5,453.5C 265.586,464.665 225.586,465.165 185.5,455C 117.643,432.469 75.4759,386.302 59,316.5C 46.5124,259.091 55.5124,205.425 86,155.5C 118.106,110.175 161.939,83.842 217.5,76.5C 231.484,75.4672 245.484,75.3006 259.5,76C 339.538,84.4771 394.205,125.977 423.5,200.5 Z"/></g>
<g><path style="opacity:1" fill="#cdf5f6" d="M 235.5,122.5 C 195.356,135.468 167.523,161.802 152,201.5C 139.061,241.258 139.394,280.924 153,320.5C 174.971,371.244 213.471,399.744 268.5,406C 277.827,406.5 287.161,406.666 296.5,406.5C 293.785,408.072 290.785,409.072 287.5,409.5C 230.778,417.882 184.611,399.882 149,355.5C 127.196,321.729 118.529,284.729 123,244.5C 129.994,187.377 159.828,147.71 212.5,125.5C 219.916,123.614 227.583,122.614 235.5,122.5 Z"/></g>
<g><path style="opacity:1" fill="#93e8eb" d="M 212.5,125.5 C 159.828,147.71 129.994,187.377 123,244.5C 118.529,284.729 127.196,321.729 149,355.5C 184.611,399.882 230.778,417.882 287.5,409.5C 281.095,411.598 274.428,413.098 267.5,414C 253.191,415.408 238.858,415.741 224.5,415C 173.722,407.887 137.222,381.387 115,335.5C 99.8746,297.954 97.5413,259.621 108,220.5C 124.665,168.765 159.499,137.099 212.5,125.5 Z"/></g>
<g><path style="opacity:1" fill="#cef6f7" d="M 327.5,448.5 C 390.06,426.271 430.727,383.271 449.5,319.5C 439.167,319.5 428.833,319.5 418.5,319.5C 419.234,318.292 419.567,316.959 419.5,315.5C 436.167,315.5 452.833,315.5 469.5,315.5C 449.326,383.174 405.326,427.008 337.5,447C 334.243,448.043 330.91,448.543 327.5,448.5 Z"/></g>
<g><path style="opacity:1" fill="#95e8eb" d="M 418.5,319.5 C 428.833,319.5 439.167,319.5 449.5,319.5C 430.727,383.271 390.06,426.271 327.5,448.5C 320.248,450.48 312.914,452.146 305.5,453.5C 314.854,449.986 324.187,446.152 333.5,442C 382.324,416.679 413.991,377.512 428.5,324.5C 418.5,324.5 408.5,324.5 398.5,324.5C 398.421,323.07 398.754,321.736 399.5,320.5C 405.798,319.504 412.132,319.17 418.5,319.5 Z"/></g>
</svg>
